<svg width="294" height="42" viewBox="0 0 294 42" fill="none" xmlns="http://www.w3.org/2000/svg">
<path opacity="0.5" d="M40.0652 2.25671L30.2601 36.9917C30.2102 37.1494 30.0108 37.1967 29.8945 37.0863L23.33 30.8583L28.2492 13.4514C28.2991 13.2937 28.1495 13.1518 27.9833 13.1991L9.63615 17.8662L3.10497 11.6697C2.98863 11.5593 3.03849 11.3701 3.20468 11.3228L39.7993 2.00444C39.9655 1.97291 40.115 2.11481 40.0652 2.25671Z" fill="#00B37E"/>
<path opacity="0.5" d="M23.3297 30.858L20.8037 39.8452C20.7538 40.0029 20.5544 40.0502 20.4381 39.9398L0.0634003 20.6251C-0.0529313 20.5147 -0.00307518 20.3255 0.163113 20.2782L9.63583 17.8658L23.3297 30.858Z" fill="#00B37E"/>
<path d="M28.2484 13.451L23.3292 30.8579L9.63531 17.8658L27.9825 13.1988C28.1487 13.1515 28.2982 13.2934 28.2484 13.451Z" fill="#00B37E"/>
<path d="M59.4014 11.3104H62.5745L67.2469 24.6653L71.9192 11.3104H75.0924L68.5211 29.5H65.9726L59.4014 11.3104ZM57.6898 11.3104H60.8505L61.4252 24.328V29.5H57.6898V11.3104ZM73.6432 11.3104H76.8164V29.5H73.0685V24.328L73.6432 11.3104ZM79.3024 22.8788V22.6164C79.3024 21.6253 79.444 20.7134 79.7272 19.8805C80.0104 19.0393 80.4226 18.3106 80.964 17.6943C81.5053 17.078 82.1716 16.5991 82.9628 16.2576C83.7541 15.9078 84.6619 15.7329 85.6863 15.7329C86.7107 15.7329 87.6227 15.9078 88.4222 16.2576C89.2217 16.5991 89.8922 17.078 90.4336 17.6943C90.9832 18.3106 91.3997 19.0393 91.6828 19.8805C91.966 20.7134 92.1076 21.6253 92.1076 22.6164V22.8788C92.1076 23.8616 91.966 24.7735 91.6828 25.6147C91.3997 26.4476 90.9832 27.1763 90.4336 27.801C89.8922 28.4173 89.2259 28.8962 88.4347 29.2377C87.6435 29.5791 86.7357 29.7499 85.7113 29.7499C84.6868 29.7499 83.7749 29.5791 82.9753 29.2377C82.1841 28.8962 81.5137 28.4173 80.964 27.801C80.4226 27.1763 80.0104 26.4476 79.7272 25.6147C79.444 24.7735 79.3024 23.8616 79.3024 22.8788ZM82.9004 22.6164V22.8788C82.9004 23.4451 82.9503 23.974 83.0503 24.4654C83.1502 24.9568 83.3085 25.3899 83.525 25.7646C83.7499 26.1311 84.0414 26.4184 84.3995 26.6266C84.7576 26.8349 85.1949 26.939 85.7113 26.939C86.211 26.939 86.6399 26.8349 86.998 26.6266C87.3562 26.4184 87.6435 26.1311 87.86 25.7646C88.0766 25.3899 88.2348 24.9568 88.3348 24.4654C88.443 23.974 88.4972 23.4451 88.4972 22.8788V22.6164C88.4972 22.0668 88.443 21.5504 88.3348 21.0673C88.2348 20.576 88.0724 20.1429 87.8475 19.7681C87.631 19.385 87.3437 19.0851 86.9855 18.8686C86.6274 18.6521 86.1943 18.5438 85.6863 18.5438C85.1782 18.5438 84.7451 18.6521 84.387 18.8686C84.0372 19.0851 83.7499 19.385 83.525 19.7681C83.3085 20.1429 83.1502 20.576 83.0503 21.0673C82.9503 21.5504 82.9004 22.0668 82.9004 22.6164ZM98.1166 10.311V29.5H94.5062V10.311H98.1166ZM104.888 15.9828V29.5H101.277V15.9828H104.888ZM101.052 12.4598C101.052 11.9351 101.236 11.502 101.602 11.1605C101.969 10.819 102.46 10.6483 103.076 10.6483C103.684 10.6483 104.172 10.819 104.538 11.1605C104.913 11.502 105.1 11.9351 105.1 12.4598C105.1 12.9845 104.913 13.4176 104.538 13.759C104.172 14.1005 103.684 14.2712 103.076 14.2712C102.46 14.2712 101.969 14.1005 101.602 13.759C101.236 13.4176 101.052 12.9845 101.052 12.4598ZM111.871 27.9759L115.457 15.9828H119.317L113.883 31.5363C113.766 31.8778 113.608 32.2443 113.408 32.6357C113.216 33.0271 112.954 33.3978 112.621 33.7476C112.296 34.1057 111.884 34.3972 111.384 34.6221C110.893 34.8469 110.289 34.9594 109.573 34.9594C109.231 34.9594 108.952 34.9385 108.736 34.8969C108.519 34.8553 108.261 34.797 107.961 34.722V32.086C108.053 32.086 108.148 32.086 108.248 32.086C108.348 32.0943 108.444 32.0985 108.536 32.0985C109.01 32.0985 109.398 32.0444 109.698 31.9361C109.997 31.8278 110.239 31.6613 110.422 31.4364C110.605 31.2198 110.751 30.9367 110.859 30.5869L111.871 27.9759ZM110.372 15.9828L113.308 25.7771L113.82 29.5874L111.372 29.8498L106.512 15.9828H110.372ZM127.85 26.4517V20.4302C127.85 19.9971 127.779 19.6265 127.637 19.3183C127.496 19.0019 127.275 18.7562 126.975 18.5813C126.684 18.4064 126.305 18.3189 125.838 18.3189C125.438 18.3189 125.093 18.3897 124.801 18.5313C124.51 18.6645 124.285 18.8603 124.127 19.1185C123.968 19.3683 123.889 19.664 123.889 20.0054H120.291C120.291 19.4308 120.425 18.8853 120.691 18.3689C120.958 17.8525 121.345 17.3986 121.853 17.0072C122.361 16.6074 122.965 16.2951 123.664 16.0702C124.372 15.8453 125.164 15.7329 126.038 15.7329C127.088 15.7329 128.02 15.9078 128.837 16.2576C129.653 16.6074 130.294 17.1321 130.76 17.8317C131.235 18.5313 131.473 19.4058 131.473 20.4552V26.2394C131.473 26.9806 131.518 27.5886 131.61 28.0633C131.702 28.5297 131.835 28.9378 132.01 29.2876V29.5H128.374C128.199 29.1335 128.066 28.6755 127.975 28.1258C127.891 27.5678 127.85 27.0098 127.85 26.4517ZM128.324 21.2672L128.349 23.3036H126.338C125.863 23.3036 125.451 23.3577 125.101 23.466C124.751 23.5742 124.464 23.7283 124.239 23.9282C124.014 24.1198 123.848 24.3446 123.739 24.6028C123.64 24.861 123.59 25.1442 123.59 25.4523C123.59 25.7605 123.66 26.0395 123.802 26.2893C123.943 26.5309 124.148 26.7224 124.414 26.864C124.681 26.9973 124.993 27.0639 125.351 27.0639C125.892 27.0639 126.363 26.9556 126.763 26.7391C127.162 26.5225 127.471 26.256 127.687 25.9395C127.912 25.6231 128.029 25.3232 128.037 25.0401L128.986 26.5642C128.853 26.9057 128.67 27.2596 128.437 27.6261C128.212 27.9925 127.925 28.3382 127.575 28.663C127.225 28.9795 126.804 29.2418 126.313 29.45C125.822 29.6499 125.239 29.7499 124.564 29.7499C123.706 29.7499 122.927 29.5791 122.228 29.2377C121.537 28.8879 120.987 28.409 120.579 27.801C120.179 27.1847 119.979 26.4851 119.979 25.7022C119.979 24.9943 120.112 24.3654 120.379 23.8158C120.645 23.2661 121.037 22.8038 121.553 22.4291C122.078 22.0459 122.732 21.7586 123.515 21.5671C124.297 21.3672 125.205 21.2672 126.238 21.2672H128.324ZM138.643 26.8765L141.642 15.9828H145.402L140.842 29.5H138.568L138.643 26.8765ZM136.582 15.9828L139.593 26.889L139.655 29.5H137.369L132.809 15.9828H136.582ZM150.811 15.9828V29.5H147.201V15.9828H150.811ZM146.976 12.4598C146.976 11.9351 147.159 11.502 147.526 11.1605C147.892 10.819 148.384 10.6483 149 10.6483C149.608 10.6483 150.095 10.819 150.462 11.1605C150.836 11.502 151.024 11.9351 151.024 12.4598C151.024 12.9845 150.836 13.4176 150.462 13.759C150.095 14.1005 149.608 14.2712 149 14.2712C148.384 14.2712 147.892 14.1005 147.526 13.759C147.159 13.4176 146.976 12.9845 146.976 12.4598ZM157.795 27.9759L161.38 15.9828H165.241L159.806 31.5363C159.69 31.8778 159.531 32.2443 159.332 32.6357C159.14 33.0271 158.878 33.3978 158.544 33.7476C158.22 34.1057 157.807 34.3972 157.308 34.6221C156.816 34.8469 156.212 34.9594 155.496 34.9594C155.155 34.9594 154.876 34.9385 154.659 34.8969C154.443 34.8553 154.184 34.797 153.885 34.722V32.086C153.976 32.086 154.072 32.086 154.172 32.086C154.272 32.0943 154.368 32.0985 154.459 32.0985C154.934 32.0985 155.321 32.0444 155.621 31.9361C155.921 31.8278 156.163 31.6613 156.346 31.4364C156.529 31.2198 156.675 30.9367 156.783 30.5869L157.795 27.9759ZM156.296 15.9828L159.232 25.7771L159.744 29.5874L157.295 29.8498L152.435 15.9828H156.296ZM173.049 10.311H176.647V26.4018L176.284 29.5H173.049V10.311ZM185.204 22.604V22.8663C185.204 23.8741 185.096 24.7985 184.879 25.6397C184.671 26.4809 184.346 27.2096 183.905 27.826C183.464 28.4339 182.914 28.9087 182.256 29.2501C181.606 29.5833 180.84 29.7499 179.957 29.7499C179.133 29.7499 178.416 29.5833 177.808 29.2501C177.209 28.917 176.705 28.4464 176.297 27.8385C175.889 27.2305 175.56 26.5184 175.31 25.7022C175.06 24.886 174.873 23.9948 174.748 23.0287V22.454C174.873 21.4879 175.06 20.5968 175.31 19.7806C175.56 18.9644 175.889 18.2523 176.297 17.6443C176.705 17.0363 177.209 16.5658 177.808 16.2326C178.408 15.8995 179.116 15.7329 179.932 15.7329C180.823 15.7329 181.598 15.9036 182.256 16.2451C182.922 16.5782 183.472 17.053 183.905 17.6693C184.346 18.2773 184.671 19.0019 184.879 19.843C185.096 20.6759 185.204 21.5962 185.204 22.604ZM181.606 22.8663V22.604C181.606 22.0543 181.565 21.5379 181.481 21.0548C181.406 20.5635 181.273 20.1345 181.082 19.7681C180.89 19.3933 180.628 19.0976 180.295 18.8811C179.97 18.6645 179.549 18.5563 179.033 18.5563C178.541 18.5563 178.125 18.6396 177.783 18.8061C177.442 18.9727 177.159 19.2059 176.934 19.5057C176.717 19.8056 176.555 20.1637 176.447 20.5801C176.338 20.9882 176.272 21.438 176.247 21.9293V23.5659C176.272 24.2239 176.38 24.8069 176.572 25.3149C176.772 25.8146 177.071 26.2102 177.471 26.5017C177.879 26.7849 178.408 26.9265 179.058 26.9265C179.566 26.9265 179.986 26.8265 180.32 26.6266C180.653 26.4268 180.911 26.1436 181.094 25.7771C181.286 25.4107 181.419 24.9818 181.494 24.4904C181.569 23.9907 181.606 23.4493 181.606 22.8663ZM186.866 22.8788V22.6164C186.866 21.6253 187.007 20.7134 187.29 19.8805C187.574 19.0393 187.986 18.3106 188.527 17.6943C189.069 17.078 189.735 16.5991 190.526 16.2576C191.317 15.9078 192.225 15.7329 193.25 15.7329C194.274 15.7329 195.186 15.9078 195.986 16.2576C196.785 16.5991 197.456 17.078 197.997 17.6943C198.547 18.3106 198.963 19.0393 199.246 19.8805C199.529 20.7134 199.671 21.6253 199.671 22.6164V22.8788C199.671 23.8616 199.529 24.7735 199.246 25.6147C198.963 26.4476 198.547 27.1763 197.997 27.801C197.456 28.4173 196.789 28.8962 195.998 29.2377C195.207 29.5791 194.299 29.7499 193.275 29.7499C192.25 29.7499 191.338 29.5791 190.539 29.2377C189.747 28.8962 189.077 28.4173 188.527 27.801C187.986 27.1763 187.574 26.4476 187.29 25.6147C187.007 24.7735 186.866 23.8616 186.866 22.8788ZM190.464 22.6164V22.8788C190.464 23.4451 190.514 23.974 190.614 24.4654C190.714 24.9568 190.872 25.3899 191.088 25.7646C191.313 26.1311 191.605 26.4184 191.963 26.6266C192.321 26.8349 192.758 26.939 193.275 26.939C193.774 26.939 194.203 26.8349 194.561 26.6266C194.919 26.4184 195.207 26.1311 195.423 25.7646C195.64 25.3899 195.798 24.9568 195.898 24.4654C196.006 23.974 196.06 23.4451 196.06 22.8788V22.6164C196.06 22.0668 196.006 21.5504 195.898 21.0673C195.798 20.576 195.636 20.1429 195.411 19.7681C195.194 19.385 194.907 19.0851 194.549 18.8686C194.191 18.6521 193.758 18.5438 193.25 18.5438C192.742 18.5438 192.308 18.6521 191.95 18.8686C191.601 19.0851 191.313 19.385 191.088 19.7681C190.872 20.1429 190.714 20.576 190.614 21.0673C190.514 21.5504 190.464 22.0668 190.464 22.6164ZM209.19 25.7646C209.19 25.5065 209.115 25.2733 208.966 25.065C208.816 24.8568 208.537 24.6653 208.129 24.4904C207.729 24.3071 207.15 24.1406 206.392 23.9907C205.709 23.8407 205.072 23.6534 204.481 23.4285C203.898 23.1953 203.39 22.9163 202.957 22.5915C202.532 22.2666 202.199 21.8835 201.957 21.4421C201.716 20.9924 201.595 20.4802 201.595 19.9055C201.595 19.3392 201.716 18.8061 201.957 18.3064C202.207 17.8067 202.561 17.3653 203.019 16.9822C203.485 16.5907 204.052 16.2867 204.718 16.0702C205.393 15.8453 206.151 15.7329 206.992 15.7329C208.166 15.7329 209.174 15.9203 210.015 16.2951C210.864 16.6699 211.514 17.1862 211.964 17.8442C212.422 18.4938 212.651 19.2351 212.651 20.0679H209.053C209.053 19.7181 208.978 19.4058 208.828 19.1309C208.687 18.8478 208.462 18.6271 208.154 18.4688C207.854 18.3023 207.462 18.219 206.979 18.219C206.579 18.219 206.234 18.2898 205.942 18.4313C205.651 18.5646 205.426 18.7478 205.268 18.981C205.118 19.2059 205.043 19.4558 205.043 19.7306C205.043 19.9388 205.084 20.1262 205.168 20.2928C205.259 20.451 205.405 20.5968 205.605 20.73C205.805 20.8633 206.063 20.9882 206.38 21.1048C206.704 21.2131 207.104 21.313 207.579 21.4046C208.553 21.6045 209.424 21.8669 210.19 22.1917C210.956 22.5082 211.564 22.9413 212.014 23.4909C212.464 24.0323 212.688 24.7444 212.688 25.6272C212.688 26.2269 212.555 26.7766 212.289 27.2763C212.022 27.776 211.639 28.2132 211.139 28.588C210.64 28.9545 210.04 29.2418 209.34 29.45C208.649 29.6499 207.87 29.7499 207.004 29.7499C205.747 29.7499 204.681 29.525 203.806 29.0752C202.94 28.6255 202.282 28.055 201.832 27.3637C201.391 26.6641 201.17 25.9479 201.17 25.215H204.581C204.597 25.7063 204.722 26.1019 204.955 26.4018C205.197 26.7016 205.501 26.9181 205.867 27.0514C206.242 27.1847 206.646 27.2513 207.079 27.2513C207.546 27.2513 207.933 27.1888 208.241 27.0639C208.549 26.9306 208.782 26.7557 208.941 26.5392C209.107 26.3143 209.19 26.0561 209.19 25.7646ZM218.535 10.311V29.5H214.937V10.311H218.535ZM218.023 22.2666H217.036C217.044 21.3255 217.169 20.4594 217.411 19.6681C217.652 18.8686 217.998 18.1773 218.448 17.5943C218.897 17.003 219.435 16.5449 220.059 16.2201C220.692 15.8953 221.392 15.7329 222.158 15.7329C222.824 15.7329 223.428 15.8287 223.969 16.0202C224.519 16.2035 224.99 16.5033 225.381 16.9197C225.781 17.3278 226.089 17.865 226.306 18.5313C226.522 19.1976 226.63 20.0054 226.63 20.9549V29.5H223.008V20.9299C223.008 20.3303 222.92 19.8597 222.745 19.5182C222.579 19.1684 222.333 18.9227 222.008 18.7811C221.692 18.6312 221.3 18.5563 220.834 18.5563C220.317 18.5563 219.876 18.6521 219.51 18.8436C219.151 19.0352 218.864 19.3017 218.648 19.6432C218.431 19.9763 218.273 20.3677 218.173 20.8175C218.073 21.2672 218.023 21.7503 218.023 22.2666ZM237.349 34.697V18.7437L237.812 15.9828H240.972V34.697H237.349ZM228.804 22.8788V22.6164C228.804 21.5837 228.917 20.6467 229.141 19.8056C229.375 18.956 229.716 18.2315 230.166 17.6318C230.616 17.0238 231.165 16.5574 231.815 16.2326C232.473 15.8995 233.231 15.7329 234.089 15.7329C234.913 15.7329 235.625 15.8995 236.225 16.2326C236.825 16.5658 237.328 17.0363 237.737 17.6443C238.153 18.2523 238.486 18.9685 238.736 19.7931C238.986 20.6176 239.177 21.5212 239.311 22.504V23.0787C239.186 24.0198 238.994 24.8943 238.736 25.7022C238.486 26.51 238.153 27.218 237.737 27.826C237.328 28.4339 236.82 28.9087 236.212 29.2501C235.613 29.5833 234.897 29.7499 234.064 29.7499C233.222 29.7499 232.473 29.5791 231.815 29.2377C231.165 28.8879 230.616 28.4048 230.166 27.7885C229.716 27.1722 229.375 26.4476 229.141 25.6147C228.917 24.7735 228.804 23.8616 228.804 22.8788ZM232.402 22.6164V22.8788C232.402 23.4368 232.448 23.9615 232.54 24.4529C232.631 24.936 232.777 25.3649 232.977 25.7397C233.185 26.1144 233.452 26.4101 233.776 26.6266C234.101 26.8349 234.501 26.939 234.976 26.939C235.634 26.939 236.162 26.7974 236.562 26.5142C236.97 26.2227 237.27 25.8271 237.462 25.3274C237.662 24.8277 237.778 24.2572 237.812 23.6159V21.9793C237.787 21.4546 237.716 20.9841 237.599 20.5676C237.491 20.1429 237.324 19.7806 237.099 19.4807C236.883 19.1809 236.6 18.9519 236.25 18.7936C235.908 18.6271 235.492 18.5438 235.001 18.5438C234.534 18.5438 234.134 18.6479 233.801 18.8561C233.468 19.0643 233.197 19.3558 232.989 19.7306C232.789 20.0971 232.639 20.526 232.54 21.0174C232.448 21.5088 232.402 22.0418 232.402 22.6164ZM251.104 26.4517V20.4302C251.104 19.9971 251.033 19.6265 250.892 19.3183C250.75 19.0019 250.529 18.7562 250.229 18.5813C249.938 18.4064 249.559 18.3189 249.093 18.3189C248.693 18.3189 248.347 18.3897 248.056 18.5313C247.764 18.6645 247.539 18.8603 247.381 19.1185C247.223 19.3683 247.144 19.664 247.144 20.0054H243.546C243.546 19.4308 243.679 18.8853 243.946 18.3689C244.212 17.8525 244.599 17.3986 245.107 17.0072C245.615 16.6074 246.219 16.2951 246.919 16.0702C247.627 15.8453 248.418 15.7329 249.292 15.7329C250.342 15.7329 251.275 15.9078 252.091 16.2576C252.907 16.6074 253.548 17.1321 254.015 17.8317C254.489 18.5313 254.727 19.4058 254.727 20.4552V26.2394C254.727 26.9806 254.773 27.5886 254.864 28.0633C254.956 28.5297 255.089 28.9378 255.264 29.2876V29.5H251.629C251.454 29.1335 251.32 28.6755 251.229 28.1258C251.146 27.5678 251.104 27.0098 251.104 26.4517ZM251.579 21.2672L251.604 23.3036H249.592C249.118 23.3036 248.705 23.3577 248.355 23.466C248.006 23.5742 247.718 23.7283 247.493 23.9282C247.269 24.1198 247.102 24.3446 246.994 24.6028C246.894 24.861 246.844 25.1442 246.844 25.4523C246.844 25.7605 246.915 26.0395 247.056 26.2893C247.198 26.5309 247.402 26.7224 247.668 26.864C247.935 26.9973 248.247 27.0639 248.605 27.0639C249.147 27.0639 249.617 26.9556 250.017 26.7391C250.417 26.5225 250.725 26.256 250.941 25.9395C251.166 25.6231 251.283 25.3232 251.291 25.0401L252.241 26.5642C252.107 26.9057 251.924 27.2596 251.691 27.6261C251.466 27.9925 251.179 28.3382 250.829 28.663C250.479 28.9795 250.059 29.2418 249.567 29.45C249.076 29.6499 248.493 29.7499 247.818 29.7499C246.96 29.7499 246.182 29.5791 245.482 29.2377C244.791 28.8879 244.241 28.409 243.833 27.801C243.433 27.1847 243.233 26.4851 243.233 25.7022C243.233 24.9943 243.367 24.3654 243.633 23.8158C243.9 23.2661 244.291 22.8038 244.808 22.4291C245.332 22.0459 245.986 21.7586 246.769 21.5671C247.552 21.3672 248.46 21.2672 249.492 21.2672H251.579ZM261.098 18.9311V29.5H257.5V15.9828H260.886L261.098 18.9311ZM265.171 15.8953L265.108 19.2309C264.933 19.2059 264.721 19.1851 264.471 19.1684C264.23 19.1434 264.009 19.1309 263.809 19.1309C263.301 19.1309 262.86 19.1976 262.485 19.3308C262.118 19.4558 261.81 19.6432 261.56 19.893C261.319 20.1429 261.136 20.4469 261.011 20.805C260.894 21.1631 260.827 21.5712 260.811 22.0293L260.086 21.8044C260.086 20.9299 260.174 20.1262 260.349 19.3933C260.523 18.6521 260.778 18.0066 261.111 17.4569C261.452 16.9072 261.869 16.4825 262.36 16.1826C262.851 15.8828 263.414 15.7329 264.046 15.7329C264.246 15.7329 264.45 15.7496 264.659 15.7829C264.867 15.8079 265.038 15.8453 265.171 15.8953ZM274.865 26.2644V15.9828H278.463V29.5H275.078L274.865 26.2644ZM275.265 23.4909L276.327 23.466C276.327 24.3654 276.223 25.2025 276.015 25.977C275.806 26.7432 275.494 27.4095 275.078 27.9759C274.661 28.5339 274.137 28.9711 273.504 29.2876C272.871 29.5958 272.125 29.7499 271.267 29.7499C270.609 29.7499 270.001 29.6582 269.443 29.475C268.894 29.2835 268.419 28.9878 268.019 28.588C267.628 28.1799 267.32 27.6594 267.095 27.0264C266.878 26.3851 266.77 25.6147 266.77 24.7152V15.9828H270.368V24.7402C270.368 25.14 270.414 25.4773 270.505 25.7521C270.605 26.027 270.743 26.2519 270.918 26.4268C271.092 26.6017 271.296 26.7266 271.53 26.8015C271.771 26.8765 272.038 26.914 272.329 26.914C273.07 26.914 273.653 26.7641 274.078 26.4642C274.511 26.1644 274.815 25.7563 274.99 25.2399C275.173 24.7152 275.265 24.1322 275.265 23.4909ZM285.809 26.8765L288.807 15.9828H292.568L288.008 29.5H285.734L285.809 26.8765ZM283.748 15.9828L286.758 26.889L286.821 29.5H284.535L279.975 15.9828H283.748Z" fill="#E1E1E6"/>
</svg>
